<?xml version="1.0" encoding="UTF-8"?>
<svg id="Layer_2" data-name="Layer 2" xmlns="http://www.w3.org/2000/svg" viewBox="0 0 168.6 168.6">
  <defs>
    <style>
      .cls-1 {
        fill: #fff;
      }

      .cls-2 {
        fill: #31353a;
      }
    </style>
  </defs>
  <g id="Layer_1-2" data-name="Layer 1">
    <circle class="cls-2" cx="84.3" cy="84.3" r="84.3"/>
    <g>
      <path class="cls-1" d="M43.78,58.8c0-3.93-.06-7.56,.02-11.19,.05-2.12,1.63-3.62,3.77-3.81,.47-.04,.95-.04,1.43-.04,20.87,0,41.73-.02,62.6,.04,1.29,0,2.71,.4,3.82,1.04,1.42,.83,1.41,2.48,1.41,4.01-.01,14.85,0,29.69,0,44.54,0,12.82,0,25.64,0,38.45,0,3.89-1.4,5.31-5.24,5.31-20.87,0-41.73,0-62.6,0-3.73,0-5.2-1.47-5.21-5.18,0-3.21,0-6.42,0-10,2.08,0,4.03,.15,5.96-.03,2.99-.28,5.21-2.72,5.47-5.7,.23-2.73-1.55-5.57-4.21-6.38-1.11-.34-2.34-.34-3.52-.4-1.17-.06-2.35-.01-3.6-.01v-11.81c1.99,0,3.94,.15,5.86-.03,2.99-.28,5.21-2.71,5.48-5.7,.24-2.72-1.54-5.58-4.2-6.38-1.23-.37-2.58-.35-3.88-.43-1.05-.07-2.11-.01-3.25-.01v-13.66c1.68,0,3.39,.06,5.09-.01,3.29-.15,5.78-2.43,6.22-5.6,.39-2.83-1.42-5.79-4.28-6.65-1.11-.34-2.35-.28-3.53-.33-1.12-.05-2.24-.01-3.58-.01Z"/>
      <path class="cls-1" d="M121.42,126.74c0-.67,0-1.37,0-2.07,0-25.28,0-50.55,0-75.83,0-6.2-3.43-9.65-9.58-9.65-18.54,0-37.08,0-55.62,0-.7,0-1.41,0-2.08,0-.73-3.36,1.05-5.58,4.44-5.6,6.56-.03,13.12,0,19.67,0,14.49,0,28.97,0,43.46,0,3.81,0,5.31,1.49,5.31,5.29,0,27.66,0,55.32,0,82.98,0,3.8-1.83,5.44-5.6,4.89Z"/>
      <path class="cls-1" d="M43.76,118.87c-1.6,0-3.21,.05-4.81-.01-1.95-.08-3.28-1.36-3.31-3.05-.03-1.68,1.3-3.08,3.23-3.13,3.27-.08,6.54-.08,9.8,0,1.96,.04,3.26,1.34,3.28,3.06,.03,1.79-1.31,3.06-3.38,3.14-1.6,.06-3.21,.01-4.81,.01Z"/>
      <path class="cls-1" d="M43.82,88.32c1.54,0,3.09-.03,4.63,0,2.09,.05,3.45,1.26,3.5,3.03,.05,1.78-1.28,3.13-3.35,3.17-3.21,.07-6.42,.07-9.62,0-2.03-.04-3.41-1.46-3.34-3.2,.07-1.7,1.41-2.93,3.37-3,1.6-.05,3.21-.01,4.81-.01Z"/>
      <path class="cls-1" d="M43.79,62.05c1.72,0,3.45-.05,5.17,.01,1.75,.06,2.94,1.27,2.99,2.9,.05,1.64-1.21,3.12-2.96,3.16-3.44,.08-6.89,.08-10.33,0-1.77-.04-3.06-1.5-3.02-3.13,.04-1.65,1.34-2.86,3.16-2.96,.12,0,.24,0,.36,0,1.54,0,3.09,0,4.63,0h0Z"/>
    </g>
  </g>
</svg>