<?xml version="1.0" encoding="UTF-8"?>
<svg id="Layer_2" data-name="Layer 2" xmlns="http://www.w3.org/2000/svg" viewBox="0 0 162.38 82.5">
  <defs>
    <style>
      .cls-1 {
        fill: #fff;
      }
    </style>
  </defs>
  <g id="Layer_1-2" data-name="Layer 1">
    <path class="cls-1" d="M32.58,19.42h-14.78c-1.1,0-2-.9-2-2s.9-2,2-2h14.78c1.1,0,2,.9,2,2s-.9,2-2,2Z"/>
    <path class="cls-1" d="M37.53,28.78H13.59c-1.1,0-2-.9-2-2s.9-2,2-2h23.94c1.1,0,2,.9,2,2s-.9,2-2,2Z"/>
    <path class="cls-1" d="M35.88,38.36H15.2c-1.1,0-2-.9-2-2s.9-2,2-2h20.69c1.1,0,2,.9,2,2s-.9,2-2,2Z"/>
    <path class="cls-1" d="M32.58,47.48H12.59c-1.1,0-2-.9-2-2s.9-2,2-2h19.99c1.1,0,2,.9,2,2s-.9,2-2,2Z"/>
    <g>
      <path class="cls-1" d="M7.62,0V62.77H0V0H7.62Zm-.41,62.77v-7.62h14.62c3.53,0,6.75-.55,9.68-1.66,2.93-1.11,5.44-2.69,7.53-4.75,2.09-2.06,3.71-4.56,4.84-7.49,1.13-2.93,1.7-6.22,1.7-9.86s-.57-6.93-1.7-9.86c-1.14-2.93-2.75-5.42-4.84-7.49-2.09-2.06-4.6-3.65-7.53-4.75-2.93-1.11-6.16-1.66-9.68-1.66H7.21V0h14.62c6.1,0,11.51,1.32,16.23,3.95,4.72,2.63,8.43,6.29,11.12,10.98,2.69,4.69,4.04,10.18,4.04,16.45s-1.35,11.76-4.04,16.45c-2.69,4.69-6.4,8.35-11.12,10.98-4.72,2.63-10.13,3.95-16.23,3.95H7.21Z"/>
      <path class="cls-1" d="M62.88,54.07c.75,1.14,1.79,1.99,3.14,2.56,1.35,.57,2.88,.85,4.62,.85,2.21,0,4.2-.45,5.96-1.35,1.76-.9,3.17-2.17,4.21-3.81,1.05-1.64,1.57-3.54,1.57-5.69l1.43,5.38c0,2.63-.79,4.81-2.38,6.55-1.58,1.74-3.53,3.02-5.83,3.86-2.3,.84-4.59,1.25-6.86,1.25-2.51,0-4.86-.52-7.04-1.57-2.18-1.04-3.93-2.56-5.25-4.53-1.32-1.97-1.97-4.36-1.97-7.17,0-4,1.42-7.22,4.26-9.64,2.84-2.42,6.8-3.63,11.88-3.63,2.99,0,5.48,.34,7.49,1.03,2,.69,3.6,1.47,4.8,2.33,1.19,.87,2,1.57,2.42,2.11v4.21c-2.09-1.43-4.25-2.47-6.46-3.09-2.21-.63-4.57-.94-7.08-.94-2.33,0-4.23,.3-5.69,.9-1.47,.6-2.56,1.43-3.27,2.51s-1.08,2.36-1.08,3.86,.37,2.9,1.12,4.04Zm-5.69-28.33c1.55-1.13,3.69-2.27,6.41-3.41,2.72-1.13,5.99-1.7,9.82-1.7,3.23,0,6.05,.49,8.47,1.48,2.42,.99,4.3,2.41,5.65,4.26,1.35,1.85,2.02,4.12,2.02,6.81v29.59h-7.17v-28.6c0-1.43-.24-2.61-.72-3.54-.48-.93-1.15-1.66-2.02-2.2-.87-.54-1.87-.93-3-1.17-1.14-.24-2.33-.36-3.59-.36-2.03,0-3.87,.24-5.51,.72-1.65,.48-3.03,1.05-4.17,1.7-1.14,.66-2.03,1.23-2.69,1.7l-3.5-5.29Z"/>
      <path class="cls-1" d="M105.04,82.5h-8.07l11.3-25.56-15.78-35.42h8.52l13.09,32.28-2.96-.36,12.73-31.92h8.07l-26.9,60.98Z"/>
      <path class="cls-1" d="M140.23,53.62c1.08,1.08,2.32,1.93,3.72,2.56,1.4,.63,2.94,.94,4.62,.94,2.03,0,3.63-.46,4.8-1.39,1.17-.93,1.75-2.2,1.75-3.81,0-1.43-.46-2.65-1.39-3.63-.93-.99-2.11-1.82-3.54-2.51-1.43-.69-2.96-1.33-4.57-1.93-1.79-.72-3.6-1.57-5.42-2.56-1.82-.99-3.35-2.27-4.57-3.86-1.23-1.58-1.84-3.57-1.84-5.96s.64-4.48,1.93-6.1c1.28-1.61,2.96-2.81,5.02-3.59,2.06-.78,4.2-1.17,6.41-1.17s4.29,.36,6.23,1.08c1.94,.72,3.66,1.67,5.16,2.87,1.49,1.2,2.66,2.57,3.5,4.12l-5.74,3.68c-1.14-1.55-2.56-2.84-4.26-3.86-1.7-1.02-3.63-1.52-5.78-1.52-1.5,0-2.78,.33-3.86,.99-1.08,.66-1.61,1.67-1.61,3.05,0,1.08,.42,2.03,1.26,2.87,.84,.84,1.91,1.58,3.23,2.24,1.31,.66,2.69,1.29,4.12,1.88,2.39,.96,4.57,1.99,6.55,3.09,1.97,1.11,3.54,2.44,4.71,3.99,1.17,1.56,1.75,3.56,1.75,6.01,0,3.59-1.3,6.58-3.9,8.97-2.6,2.39-6.02,3.59-10.27,3.59-2.75,0-5.23-.49-7.44-1.48-2.21-.99-4.08-2.26-5.6-3.81-1.52-1.55-2.68-3.14-3.45-4.75l5.65-3.5c.84,1.26,1.79,2.42,2.87,3.5Z"/>
    </g>
  </g>
</svg>